<mxfile host="app.diagrams.net" modified="2023-10-30T05:05:37.043Z" agent="Mozilla/5.0 (X11; Linux x86_64) AppleWebKit/537.36 (KHTML, like Gecko) Chrome/112.0.0.0 Safari/537.36" etag="xZHrr-3dw6kZIuXAa6Bw" version="22.0.8" type="github">
  <diagram name="Page-1" id="c7558073-3199-34d8-9f00-42111426c3f3">
    <mxGraphModel dx="1912" dy="487" grid="1" gridSize="10" guides="1" tooltips="1" connect="1" arrows="1" fold="1" page="1" pageScale="1" pageWidth="826" pageHeight="1169" background="none" math="0" shadow="0">
      <root>
        <mxCell id="0" />
        <mxCell id="1" parent="0" />
        <mxCell id="V2TOWGSB-yaAoC9O6gta-98" value="" style="edgeStyle=orthogonalEdgeStyle;rounded=0;orthogonalLoop=1;jettySize=auto;html=1;" edge="1" parent="1" source="V2TOWGSB-yaAoC9O6gta-96" target="V2TOWGSB-yaAoC9O6gta-97">
          <mxGeometry relative="1" as="geometry" />
        </mxCell>
        <mxCell id="V2TOWGSB-yaAoC9O6gta-100" value="" style="edgeStyle=orthogonalEdgeStyle;rounded=0;orthogonalLoop=1;jettySize=auto;html=1;" edge="1" parent="1" source="V2TOWGSB-yaAoC9O6gta-96" target="V2TOWGSB-yaAoC9O6gta-99">
          <mxGeometry relative="1" as="geometry" />
        </mxCell>
        <mxCell id="V2TOWGSB-yaAoC9O6gta-102" value="" style="edgeStyle=orthogonalEdgeStyle;rounded=0;orthogonalLoop=1;jettySize=auto;html=1;" edge="1" parent="1" source="V2TOWGSB-yaAoC9O6gta-96" target="V2TOWGSB-yaAoC9O6gta-101">
          <mxGeometry relative="1" as="geometry" />
        </mxCell>
        <mxCell id="V2TOWGSB-yaAoC9O6gta-104" value="" style="edgeStyle=orthogonalEdgeStyle;rounded=0;orthogonalLoop=1;jettySize=auto;html=1;" edge="1" parent="1" source="V2TOWGSB-yaAoC9O6gta-96" target="V2TOWGSB-yaAoC9O6gta-103">
          <mxGeometry relative="1" as="geometry" />
        </mxCell>
        <mxCell id="V2TOWGSB-yaAoC9O6gta-144" value="" style="edgeStyle=orthogonalEdgeStyle;rounded=0;orthogonalLoop=1;jettySize=auto;html=1;" edge="1" parent="1" source="V2TOWGSB-yaAoC9O6gta-96" target="V2TOWGSB-yaAoC9O6gta-124">
          <mxGeometry relative="1" as="geometry" />
        </mxCell>
        <mxCell id="V2TOWGSB-yaAoC9O6gta-96" value="Shocked patient" style="shape=process;whiteSpace=wrap;html=1;backgroundOutline=1;fillColor=#dae8fc;strokeColor=#6c8ebf;" vertex="1" parent="1">
          <mxGeometry x="360" width="120" height="60" as="geometry" />
        </mxCell>
        <mxCell id="V2TOWGSB-yaAoC9O6gta-97" value="Cardiogenic Shock" style="whiteSpace=wrap;html=1;fillColor=#f8cecc;strokeColor=#b85450;" vertex="1" parent="1">
          <mxGeometry x="-730" y="90" width="120" height="60" as="geometry" />
        </mxCell>
        <mxCell id="V2TOWGSB-yaAoC9O6gta-99" value="Obstructive Shock" style="rounded=1;whiteSpace=wrap;html=1;fillColor=#f8cecc;strokeColor=#b85450;" vertex="1" parent="1">
          <mxGeometry x="-413" y="90" width="120" height="60" as="geometry" />
        </mxCell>
        <mxCell id="V2TOWGSB-yaAoC9O6gta-107" value="" style="edgeStyle=orthogonalEdgeStyle;rounded=0;orthogonalLoop=1;jettySize=auto;html=1;" edge="1" parent="1" source="V2TOWGSB-yaAoC9O6gta-101" target="V2TOWGSB-yaAoC9O6gta-106">
          <mxGeometry relative="1" as="geometry" />
        </mxCell>
        <mxCell id="V2TOWGSB-yaAoC9O6gta-101" value="Hypovolaemic Shock" style="rounded=1;whiteSpace=wrap;html=1;fillColor=#f8cecc;strokeColor=#b85450;" vertex="1" parent="1">
          <mxGeometry x="760" y="90" width="120" height="60" as="geometry" />
        </mxCell>
        <mxCell id="V2TOWGSB-yaAoC9O6gta-103" value="Distributive Shock" style="rounded=1;whiteSpace=wrap;html=1;fillColor=#f8cecc;strokeColor=#b85450;" vertex="1" parent="1">
          <mxGeometry x="1290" y="90" width="120" height="60" as="geometry" />
        </mxCell>
        <mxCell id="V2TOWGSB-yaAoC9O6gta-115" value="No" style="edgeStyle=orthogonalEdgeStyle;rounded=0;orthogonalLoop=1;jettySize=auto;html=1;" edge="1" parent="1" source="V2TOWGSB-yaAoC9O6gta-106" target="V2TOWGSB-yaAoC9O6gta-114">
          <mxGeometry relative="1" as="geometry" />
        </mxCell>
        <mxCell id="V2TOWGSB-yaAoC9O6gta-146" value="Yes" style="edgeStyle=orthogonalEdgeStyle;rounded=0;orthogonalLoop=1;jettySize=auto;html=1;" edge="1" parent="1" source="V2TOWGSB-yaAoC9O6gta-106" target="V2TOWGSB-yaAoC9O6gta-145">
          <mxGeometry relative="1" as="geometry" />
        </mxCell>
        <mxCell id="V2TOWGSB-yaAoC9O6gta-106" value="Is Hemorrhagic?" style="rhombus;whiteSpace=wrap;html=1;rounded=1;fillColor=#f5f5f5;fontColor=#333333;strokeColor=#666666;" vertex="1" parent="1">
          <mxGeometry x="765" y="235" width="110" height="90" as="geometry" />
        </mxCell>
        <mxCell id="V2TOWGSB-yaAoC9O6gta-123" value="" style="edgeStyle=orthogonalEdgeStyle;rounded=0;orthogonalLoop=1;jettySize=auto;html=1;" edge="1" parent="1" source="V2TOWGSB-yaAoC9O6gta-114" target="V2TOWGSB-yaAoC9O6gta-122">
          <mxGeometry relative="1" as="geometry" />
        </mxCell>
        <mxCell id="V2TOWGSB-yaAoC9O6gta-114" value="External/Internal fluid loss" style="whiteSpace=wrap;html=1;rounded=1;" vertex="1" parent="1">
          <mxGeometry x="580" y="250" width="120" height="60" as="geometry" />
        </mxCell>
        <mxCell id="V2TOWGSB-yaAoC9O6gta-122" value="&lt;span style=&quot;color: rgb(0, 0, 0); font-family: Helvetica; font-size: 12px; font-style: normal; font-variant-ligatures: normal; font-variant-caps: normal; font-weight: 400; letter-spacing: normal; orphans: 2; text-align: center; text-indent: 0px; text-transform: none; widows: 2; word-spacing: 0px; -webkit-text-stroke-width: 0px; background-color: rgb(251, 251, 251); text-decoration-thickness: initial; text-decoration-style: initial; text-decoration-color: initial; float: none; display: inline !important;&quot;&gt;Diarrhea - Vomitting -Polyuria (DM/HHS/DKA) - Burns&amp;nbsp;&lt;/span&gt;" style="ellipse;whiteSpace=wrap;html=1;rounded=1;" vertex="1" parent="1">
          <mxGeometry x="575" y="380" width="130" height="120" as="geometry" />
        </mxCell>
        <mxCell id="V2TOWGSB-yaAoC9O6gta-127" value="" style="edgeStyle=orthogonalEdgeStyle;rounded=0;orthogonalLoop=1;jettySize=auto;html=1;" edge="1" parent="1" source="V2TOWGSB-yaAoC9O6gta-124" target="V2TOWGSB-yaAoC9O6gta-126">
          <mxGeometry relative="1" as="geometry" />
        </mxCell>
        <mxCell id="V2TOWGSB-yaAoC9O6gta-124" value="High dose O2 via mask aiming at {SPO2 &amp;gt; 94%}" style="shape=hexagon;perimeter=hexagonPerimeter2;whiteSpace=wrap;html=1;fixedSize=1;fillColor=#d5e8d4;strokeColor=#82b366;" vertex="1" parent="1">
          <mxGeometry x="360" y="130" width="120" height="80" as="geometry" />
        </mxCell>
        <mxCell id="V2TOWGSB-yaAoC9O6gta-131" value="" style="edgeStyle=orthogonalEdgeStyle;rounded=0;orthogonalLoop=1;jettySize=auto;html=1;" edge="1" parent="1" source="V2TOWGSB-yaAoC9O6gta-126" target="V2TOWGSB-yaAoC9O6gta-130">
          <mxGeometry relative="1" as="geometry" />
        </mxCell>
        <mxCell id="V2TOWGSB-yaAoC9O6gta-126" value="Begin immediate fluid replacement" style="shape=hexagon;perimeter=hexagonPerimeter2;whiteSpace=wrap;html=1;fixedSize=1;fillColor=#d5e8d4;strokeColor=#82b366;" vertex="1" parent="1">
          <mxGeometry x="350" y="290" width="140" height="70" as="geometry" />
        </mxCell>
        <mxCell id="V2TOWGSB-yaAoC9O6gta-133" value="" style="edgeStyle=orthogonalEdgeStyle;rounded=0;orthogonalLoop=1;jettySize=auto;html=1;" edge="1" parent="1" source="V2TOWGSB-yaAoC9O6gta-130" target="V2TOWGSB-yaAoC9O6gta-132">
          <mxGeometry relative="1" as="geometry" />
        </mxCell>
        <mxCell id="V2TOWGSB-yaAoC9O6gta-130" value="Give 20 ml/kg IV normal saline rapidly" style="whiteSpace=wrap;html=1;fillColor=#d5e8d4;strokeColor=#82b366;gradientColor=#97d077;" vertex="1" parent="1">
          <mxGeometry x="360" y="445" width="120" height="60" as="geometry" />
        </mxCell>
        <mxCell id="V2TOWGSB-yaAoC9O6gta-135" value="" style="edgeStyle=orthogonalEdgeStyle;rounded=0;orthogonalLoop=1;jettySize=auto;html=1;" edge="1" parent="1" source="V2TOWGSB-yaAoC9O6gta-132" target="V2TOWGSB-yaAoC9O6gta-134">
          <mxGeometry relative="1" as="geometry" />
        </mxCell>
        <mxCell id="V2TOWGSB-yaAoC9O6gta-132" value="Repeat, until JVP is {3 - 5} cm above the sternal angle" style="whiteSpace=wrap;html=1;fillColor=#d5e8d4;strokeColor=#82b366;gradientColor=#97d077;" vertex="1" parent="1">
          <mxGeometry x="360" y="585" width="120" height="60" as="geometry" />
        </mxCell>
        <mxCell id="V2TOWGSB-yaAoC9O6gta-137" value="" style="edgeStyle=orthogonalEdgeStyle;rounded=0;orthogonalLoop=1;jettySize=auto;html=1;" edge="1" parent="1" source="V2TOWGSB-yaAoC9O6gta-134" target="V2TOWGSB-yaAoC9O6gta-136">
          <mxGeometry relative="1" as="geometry" />
        </mxCell>
        <mxCell id="V2TOWGSB-yaAoC9O6gta-134" value="Omit fluids if JVP &amp;gt; 5 or the patient has pulmonary edema" style="whiteSpace=wrap;html=1;fillColor=#d5e8d4;strokeColor=#82b366;gradientColor=#97d077;" vertex="1" parent="1">
          <mxGeometry x="360" y="725" width="120" height="60" as="geometry" />
        </mxCell>
        <mxCell id="V2TOWGSB-yaAoC9O6gta-139" value="" style="edgeStyle=orthogonalEdgeStyle;rounded=0;orthogonalLoop=1;jettySize=auto;html=1;" edge="1" parent="1" source="V2TOWGSB-yaAoC9O6gta-136" target="V2TOWGSB-yaAoC9O6gta-138">
          <mxGeometry relative="1" as="geometry" />
        </mxCell>
        <mxCell id="V2TOWGSB-yaAoC9O6gta-136" value="Aim for urine output of {0.5 - 1} ml/kg/hr" style="whiteSpace=wrap;html=1;fillColor=#d5e8d4;strokeColor=#82b366;gradientColor=#97d077;" vertex="1" parent="1">
          <mxGeometry x="360" y="865" width="120" height="60" as="geometry" />
        </mxCell>
        <mxCell id="V2TOWGSB-yaAoC9O6gta-141" value="" style="edgeStyle=orthogonalEdgeStyle;rounded=0;orthogonalLoop=1;jettySize=auto;html=1;" edge="1" parent="1" source="V2TOWGSB-yaAoC9O6gta-138" target="V2TOWGSB-yaAoC9O6gta-140">
          <mxGeometry relative="1" as="geometry" />
        </mxCell>
        <mxCell id="V2TOWGSB-yaAoC9O6gta-138" value="Give cross-matched blood, in case of blood loss aiming for HB 7-10 mg/dl or HT &amp;gt; 30%, use O-negative blood group if the situation is desperate" style="whiteSpace=wrap;html=1;fillColor=#d5e8d4;strokeColor=#82b366;gradientColor=#97d077;" vertex="1" parent="1">
          <mxGeometry x="352.5" y="1005" width="135" height="115" as="geometry" />
        </mxCell>
        <mxCell id="V2TOWGSB-yaAoC9O6gta-143" value="" style="edgeStyle=orthogonalEdgeStyle;rounded=0;orthogonalLoop=1;jettySize=auto;html=1;" edge="1" parent="1" source="V2TOWGSB-yaAoC9O6gta-140" target="V2TOWGSB-yaAoC9O6gta-142">
          <mxGeometry relative="1" as="geometry" />
        </mxCell>
        <mxCell id="V2TOWGSB-yaAoC9O6gta-140" value="Optimize afterload; by giving a vasopressor in case of anaphylaxis or&amp;nbsp;" style="shape=hexagon;perimeter=hexagonPerimeter2;whiteSpace=wrap;html=1;fixedSize=1;fillColor=#d5e8d4;strokeColor=#82b366;" vertex="1" parent="1">
          <mxGeometry x="345" y="1217.5" width="150" height="102.5" as="geometry" />
        </mxCell>
        <mxCell id="V2TOWGSB-yaAoC9O6gta-142" value="Treat spesis; by broad spectrum antibiotics after taking 2 sets of blood cultures from different sites" style="shape=hexagon;perimeter=hexagonPerimeter2;whiteSpace=wrap;html=1;fixedSize=1;fillColor=#d5e8d4;strokeColor=#82b366;" vertex="1" parent="1">
          <mxGeometry x="340" y="1411.25" width="160" height="108.75" as="geometry" />
        </mxCell>
        <mxCell id="V2TOWGSB-yaAoC9O6gta-148" value="Yes" style="edgeStyle=orthogonalEdgeStyle;rounded=0;orthogonalLoop=1;jettySize=auto;html=1;" edge="1" parent="1" source="V2TOWGSB-yaAoC9O6gta-145" target="V2TOWGSB-yaAoC9O6gta-147">
          <mxGeometry relative="1" as="geometry" />
        </mxCell>
        <mxCell id="V2TOWGSB-yaAoC9O6gta-152" value="No" style="edgeStyle=orthogonalEdgeStyle;rounded=0;orthogonalLoop=1;jettySize=auto;html=1;" edge="1" parent="1" source="V2TOWGSB-yaAoC9O6gta-145" target="V2TOWGSB-yaAoC9O6gta-151">
          <mxGeometry relative="1" as="geometry" />
        </mxCell>
        <mxCell id="V2TOWGSB-yaAoC9O6gta-145" value="Is External?" style="rhombus;whiteSpace=wrap;html=1;fillColor=#f5f5f5;strokeColor=#666666;fontColor=#333333;rounded=1;" vertex="1" parent="1">
          <mxGeometry x="970" y="240" width="80" height="80" as="geometry" />
        </mxCell>
        <mxCell id="V2TOWGSB-yaAoC9O6gta-147" value="&lt;ol&gt;&lt;li&gt;Apply wound compression&lt;/li&gt;&lt;li&gt;&lt;br&gt;&lt;/li&gt;&lt;/ol&gt;" style="whiteSpace=wrap;html=1;fillColor=#f5f5f5;strokeColor=#666666;fontColor=#333333;rounded=1;" vertex="1" parent="1">
          <mxGeometry x="1110" y="250" width="120" height="60" as="geometry" />
        </mxCell>
        <mxCell id="V2TOWGSB-yaAoC9O6gta-154" value="No" style="edgeStyle=orthogonalEdgeStyle;rounded=0;orthogonalLoop=1;jettySize=auto;html=1;" edge="1" parent="1" source="V2TOWGSB-yaAoC9O6gta-151" target="V2TOWGSB-yaAoC9O6gta-153">
          <mxGeometry relative="1" as="geometry" />
        </mxCell>
        <mxCell id="V2TOWGSB-yaAoC9O6gta-158" value="Yes" style="edgeStyle=orthogonalEdgeStyle;rounded=0;orthogonalLoop=1;jettySize=auto;html=1;" edge="1" parent="1" source="V2TOWGSB-yaAoC9O6gta-151" target="V2TOWGSB-yaAoC9O6gta-157">
          <mxGeometry relative="1" as="geometry" />
        </mxCell>
        <mxCell id="V2TOWGSB-yaAoC9O6gta-151" value="Is traumatic?" style="rhombus;whiteSpace=wrap;html=1;fillColor=#f5f5f5;strokeColor=#666666;fontColor=#333333;rounded=1;" vertex="1" parent="1">
          <mxGeometry x="970" y="400" width="80" height="80" as="geometry" />
        </mxCell>
        <mxCell id="V2TOWGSB-yaAoC9O6gta-153" value="&lt;div&gt;&lt;br&gt;&lt;/div&gt;&lt;ol style=&quot;border-color: var(--border-color); color: rgb(51, 51, 51); font-family: Helvetica; font-size: 12px; font-style: normal; font-variant-ligatures: normal; font-variant-caps: normal; font-weight: 400; letter-spacing: normal; orphans: 2; text-align: center; text-indent: 0px; text-transform: none; widows: 2; word-spacing: 0px; -webkit-text-stroke-width: 0px; text-decoration-thickness: initial; text-decoration-style: initial; text-decoration-color: initial;&quot;&gt;&lt;li style=&quot;border-color: var(--border-color);&quot;&gt;Consider ruptured AAA in males aged &amp;gt; 45 with adequate risk factors.&lt;/li&gt;&lt;li style=&quot;border-color: var(--border-color);&quot;&gt;Hemothorax, hemoperitoneum, retroperitoneal hemorrhage from ruptured spleen/pancreas/AAA or mesentric injury.&lt;/li&gt;&lt;li style=&quot;border-color: var(--border-color);&quot;&gt;Consider ectopic pregnancy in a pre-menopausal female with ceased menstural periods.&lt;/li&gt;&lt;li style=&quot;border-color: var(--border-color);&quot;&gt;Consider gross hematuria in nephritic and nephrotic syndromes&amp;nbsp;&lt;/li&gt;&lt;li style=&quot;border-color: var(--border-color);&quot;&gt;Spontaneous bleeding from anticoagulants (warfarin - DOAC - heparin).&lt;/li&gt;&lt;/ol&gt;" style="whiteSpace=wrap;html=1;fillColor=#f5f5f5;strokeColor=#666666;fontColor=#333333;rounded=1;" vertex="1" parent="1">
          <mxGeometry x="730" y="700" width="560" height="150" as="geometry" />
        </mxCell>
        <mxCell id="V2TOWGSB-yaAoC9O6gta-157" value="&lt;ol&gt;&lt;li&gt;Hemothorax, hemoperitoneum from liver, spleen or mesentric injury.&lt;/li&gt;&lt;li&gt;Retroperitoneall hemorrhage from aorta, pelvic or renal injury.&lt;/li&gt;&lt;li&gt;Closed long-bone and/or pelvic fracture.&lt;/li&gt;&lt;/ol&gt;" style="whiteSpace=wrap;html=1;fillColor=#f5f5f5;strokeColor=#666666;fontColor=#333333;rounded=1;" vertex="1" parent="1">
          <mxGeometry x="1170" y="360" width="330" height="160" as="geometry" />
        </mxCell>
      </root>
    </mxGraphModel>
  </diagram>
</mxfile>
